<mxfile host="Electron" modified="2024-10-11T19:55:39.868Z" agent="Mozilla/5.0 (Windows NT 10.0; Win64; x64) AppleWebKit/537.36 (KHTML, like Gecko) draw.io/24.0.4 Chrome/120.0.6099.109 Electron/28.1.0 Safari/537.36" etag="bvnovfKSrrt5AqnQn-op" version="24.0.4" type="device">
  <diagram name="Página-1" id="uBa-ZxfVo51t8cMcVtil">
    <mxGraphModel dx="642" dy="533" grid="1" gridSize="10" guides="1" tooltips="1" connect="1" arrows="1" fold="1" page="1" pageScale="1" pageWidth="827" pageHeight="1169" math="0" shadow="0">
      <root>
        <mxCell id="0" />
        <mxCell id="1" parent="0" />
        <mxCell id="Z7elSVlQBLvewlpl_m4E-10" value="IPokemon" style="swimlane;whiteSpace=wrap;html=1;startSize=20;" parent="1" vertex="1">
          <mxGeometry x="70" y="40" width="370" height="180" as="geometry" />
        </mxCell>
        <mxCell id="Z7elSVlQBLvewlpl_m4E-12" value="- Nombre del pokémon&lt;div&gt;&lt;div&gt;&lt;div&gt;- Tipo del pókemon&lt;/div&gt;&lt;div&gt;- Nivel de vida actual y total&lt;/div&gt;&lt;div&gt;- Valor de ataque y ataque especial&lt;/div&gt;&lt;/div&gt;&lt;div&gt;- Valor de defensa y defensa especial&lt;/div&gt;&lt;div&gt;- Atacar a otros&lt;/div&gt;&lt;div&gt;- Atacar a otros con más poder&lt;/div&gt;&lt;div&gt;- Recibir el daño del pókemon enemigo&lt;/div&gt;&lt;div&gt;- Mostrar la vida durante la batalla&lt;/div&gt;&lt;/div&gt;" style="text;html=1;align=left;verticalAlign=middle;whiteSpace=wrap;rounded=0;" parent="Z7elSVlQBLvewlpl_m4E-10" vertex="1">
          <mxGeometry x="10" y="20" width="240" height="160" as="geometry" />
        </mxCell>
        <mxCell id="Z7elSVlQBLvewlpl_m4E-11" value="" style="endArrow=none;html=1;rounded=0;exitX=1;exitY=1;exitDx=0;exitDy=0;" parent="Z7elSVlQBLvewlpl_m4E-10" source="Z7elSVlQBLvewlpl_m4E-12" edge="1">
          <mxGeometry width="50" height="50" relative="1" as="geometry">
            <mxPoint x="284" y="240" as="sourcePoint" />
            <mxPoint x="250" y="20" as="targetPoint" />
            <Array as="points">
              <mxPoint x="250" y="20" />
            </Array>
          </mxGeometry>
        </mxCell>
        <mxCell id="Z7elSVlQBLvewlpl_m4E-13" value="ITipo&lt;div&gt;&lt;br&gt;&lt;div&gt;Ataque&lt;/div&gt;&lt;/div&gt;" style="text;html=1;align=center;verticalAlign=middle;whiteSpace=wrap;rounded=0;" parent="Z7elSVlQBLvewlpl_m4E-10" vertex="1">
          <mxGeometry x="250" y="75" width="120" height="30" as="geometry" />
        </mxCell>
        <mxCell id="Z7elSVlQBLvewlpl_m4E-14" value="ITipo" style="swimlane;whiteSpace=wrap;html=1;startSize=20;" parent="1" vertex="1">
          <mxGeometry x="70" y="320" width="310" height="100" as="geometry" />
        </mxCell>
        <mxCell id="Z7elSVlQBLvewlpl_m4E-15" value="- Tipo de pokémon&lt;div&gt;- Calcular la efectividad al atacar&lt;br&gt;&lt;/div&gt;" style="text;html=1;align=left;verticalAlign=middle;whiteSpace=wrap;rounded=0;" parent="Z7elSVlQBLvewlpl_m4E-14" vertex="1">
          <mxGeometry x="10" y="30" width="180" height="60" as="geometry" />
        </mxCell>
        <mxCell id="Z7elSVlQBLvewlpl_m4E-17" value="IPokemon&lt;div&gt;&lt;br&gt;&lt;div&gt;IJugador&lt;/div&gt;&lt;/div&gt;&lt;div&gt;&lt;br&gt;&lt;/div&gt;&lt;div&gt;Ataque&lt;/div&gt;" style="text;html=1;align=center;verticalAlign=middle;whiteSpace=wrap;rounded=0;" parent="Z7elSVlQBLvewlpl_m4E-14" vertex="1">
          <mxGeometry x="230" y="20" width="60" height="80" as="geometry" />
        </mxCell>
        <mxCell id="Z7elSVlQBLvewlpl_m4E-16" value="" style="endArrow=none;html=1;rounded=0;" parent="Z7elSVlQBLvewlpl_m4E-14" edge="1">
          <mxGeometry width="50" height="50" relative="1" as="geometry">
            <mxPoint x="210" y="100" as="sourcePoint" />
            <mxPoint x="210" y="20" as="targetPoint" />
          </mxGeometry>
        </mxCell>
        <mxCell id="Z7elSVlQBLvewlpl_m4E-18" value="IJugador" style="swimlane;whiteSpace=wrap;html=1;startSize=20;" parent="1" vertex="1">
          <mxGeometry x="930" y="50" width="420" height="160" as="geometry" />
        </mxCell>
        <mxCell id="Z7elSVlQBLvewlpl_m4E-19" value="- Nombre del jugador&lt;div&gt;- Pokemones disponibles para elegir&lt;/div&gt;&lt;div&gt;&lt;span style=&quot;background-color: initial;&quot;&gt;- Indicar cuando es el turno del jugador&lt;/span&gt;&lt;/div&gt;&lt;div&gt;&lt;span style=&quot;background-color: initial;&quot;&gt;- Elegir pokémon para atacar&lt;/span&gt;&lt;br&gt;&lt;/div&gt;&lt;div&gt;- Elegir ataque del pokémon&amp;nbsp;&lt;/div&gt;&lt;div&gt;- Mostrar el turno de cada jugador&lt;/div&gt;" style="text;html=1;align=left;verticalAlign=middle;whiteSpace=wrap;rounded=0;" parent="Z7elSVlQBLvewlpl_m4E-18" vertex="1">
          <mxGeometry x="10" y="20" width="240" height="140" as="geometry" />
        </mxCell>
        <mxCell id="Z7elSVlQBLvewlpl_m4E-20" value="" style="endArrow=none;html=1;rounded=0;exitX=1;exitY=1;exitDx=0;exitDy=0;" parent="Z7elSVlQBLvewlpl_m4E-18" source="Z7elSVlQBLvewlpl_m4E-19" edge="1">
          <mxGeometry width="50" height="50" relative="1" as="geometry">
            <mxPoint x="180" y="-140" as="sourcePoint" />
            <mxPoint x="250" y="20" as="targetPoint" />
          </mxGeometry>
        </mxCell>
        <mxCell id="Z7elSVlQBLvewlpl_m4E-21" value="IPokemon&lt;div&gt;&lt;br&gt;&lt;/div&gt;&lt;div&gt;JugadorPrincipal&lt;/div&gt;" style="text;html=1;align=center;verticalAlign=middle;whiteSpace=wrap;rounded=0;" parent="Z7elSVlQBLvewlpl_m4E-18" vertex="1">
          <mxGeometry x="300" y="65" width="60" height="30" as="geometry" />
        </mxCell>
        <mxCell id="x8lT5OQI2FOKMgvp1QR1-1" value="Ataque" style="swimlane;whiteSpace=wrap;html=1;startSize=20;" parent="1" vertex="1">
          <mxGeometry x="440" y="270" width="420" height="160" as="geometry" />
        </mxCell>
        <mxCell id="x8lT5OQI2FOKMgvp1QR1-2" value="- Tiene un nombre de ataque&lt;div&gt;- Tiene nivel de daño&lt;/div&gt;&lt;div&gt;- Tiene un tipo de ataque, según del tipo de pokemon&lt;/div&gt;&lt;div&gt;- Puede ser especial o no&lt;/div&gt;&lt;div&gt;- Calcula el daño basado en tipo y defensa del enemigo&lt;/div&gt;" style="text;html=1;align=left;verticalAlign=middle;whiteSpace=wrap;rounded=0;" parent="x8lT5OQI2FOKMgvp1QR1-1" vertex="1">
          <mxGeometry x="10" y="20" width="240" height="140" as="geometry" />
        </mxCell>
        <mxCell id="x8lT5OQI2FOKMgvp1QR1-3" value="" style="endArrow=none;html=1;rounded=0;exitX=1;exitY=1;exitDx=0;exitDy=0;" parent="x8lT5OQI2FOKMgvp1QR1-1" source="x8lT5OQI2FOKMgvp1QR1-2" edge="1">
          <mxGeometry width="50" height="50" relative="1" as="geometry">
            <mxPoint x="180" y="-140" as="sourcePoint" />
            <mxPoint x="250" y="20" as="targetPoint" />
          </mxGeometry>
        </mxCell>
        <mxCell id="x8lT5OQI2FOKMgvp1QR1-4" value="IPokemon&lt;div&gt;&lt;br&gt;&lt;/div&gt;&lt;div&gt;ITipo&lt;/div&gt;&lt;div&gt;&lt;br&gt;&lt;/div&gt;&lt;div&gt;Pokemon&lt;/div&gt;" style="text;html=1;align=center;verticalAlign=middle;whiteSpace=wrap;rounded=0;" parent="x8lT5OQI2FOKMgvp1QR1-1" vertex="1">
          <mxGeometry x="300" y="65" width="60" height="30" as="geometry" />
        </mxCell>
        <mxCell id="n0_7weILmG-cv_jluciN-1" value="Pokemon" style="swimlane;whiteSpace=wrap;html=1;startSize=20;" vertex="1" parent="1">
          <mxGeometry x="490" y="40" width="370" height="180" as="geometry" />
        </mxCell>
        <mxCell id="n0_7weILmG-cv_jluciN-2" value="- Nombre del pokémon&lt;div&gt;&lt;div&gt;&lt;div&gt;- Tipo del pókemon&lt;/div&gt;&lt;div&gt;- Nivel de vida actual y total&lt;/div&gt;&lt;div&gt;- Valor de ataque y ataque especial&lt;/div&gt;&lt;/div&gt;&lt;div&gt;- Valor de defensa y defensa especial&lt;/div&gt;&lt;div&gt;- Ataques que puede usar el pokémon&lt;/div&gt;&lt;div&gt;- Atacar a otros&lt;/div&gt;&lt;div&gt;- Atacar a otros con más poder&lt;/div&gt;&lt;div&gt;- Recibir el daño del pókemon enemigo&lt;/div&gt;&lt;div&gt;- Mostrar la vida durante la batalla&lt;/div&gt;&lt;/div&gt;" style="text;html=1;align=left;verticalAlign=middle;whiteSpace=wrap;rounded=0;" vertex="1" parent="n0_7weILmG-cv_jluciN-1">
          <mxGeometry x="10" y="20" width="240" height="160" as="geometry" />
        </mxCell>
        <mxCell id="n0_7weILmG-cv_jluciN-3" value="" style="endArrow=none;html=1;rounded=0;exitX=1;exitY=1;exitDx=0;exitDy=0;" edge="1" parent="n0_7weILmG-cv_jluciN-1" source="n0_7weILmG-cv_jluciN-2">
          <mxGeometry width="50" height="50" relative="1" as="geometry">
            <mxPoint x="284" y="240" as="sourcePoint" />
            <mxPoint x="250" y="20" as="targetPoint" />
            <Array as="points">
              <mxPoint x="250" y="20" />
            </Array>
          </mxGeometry>
        </mxCell>
        <mxCell id="n0_7weILmG-cv_jluciN-4" value="IPokemon&lt;div&gt;&lt;br&gt;&lt;/div&gt;&lt;div&gt;ITipo&lt;/div&gt;&lt;div&gt;&lt;br&gt;&lt;/div&gt;&lt;div&gt;IJugador&lt;br&gt;&lt;div&gt;&lt;br&gt;&lt;div&gt;Ataque&lt;/div&gt;&lt;/div&gt;&lt;/div&gt;" style="text;html=1;align=center;verticalAlign=middle;whiteSpace=wrap;rounded=0;" vertex="1" parent="n0_7weILmG-cv_jluciN-1">
          <mxGeometry x="250" y="75" width="120" height="30" as="geometry" />
        </mxCell>
        <mxCell id="n0_7weILmG-cv_jluciN-6" value="Acero" style="swimlane;whiteSpace=wrap;html=1;startSize=20;" vertex="1" parent="1">
          <mxGeometry x="70" y="480" width="300" height="120" as="geometry" />
        </mxCell>
        <mxCell id="n0_7weILmG-cv_jluciN-7" value="- Nombre del tipo de pokeémon&lt;div&gt;&lt;div&gt;&lt;div&gt;- Calcular la efectividad al atacar&lt;/div&gt;&lt;/div&gt;&lt;/div&gt;" style="text;html=1;align=left;verticalAlign=middle;whiteSpace=wrap;rounded=0;" vertex="1" parent="n0_7weILmG-cv_jluciN-6">
          <mxGeometry x="10" y="20" width="200" height="100" as="geometry" />
        </mxCell>
        <mxCell id="n0_7weILmG-cv_jluciN-8" value="" style="endArrow=none;html=1;rounded=0;" edge="1" parent="n0_7weILmG-cv_jluciN-6">
          <mxGeometry width="50" height="50" relative="1" as="geometry">
            <mxPoint x="210" y="120" as="sourcePoint" />
            <mxPoint x="210" y="20" as="targetPoint" />
            <Array as="points">
              <mxPoint x="210" y="20" />
            </Array>
          </mxGeometry>
        </mxCell>
        <mxCell id="n0_7weILmG-cv_jluciN-9" value="IPokemon&lt;div&gt;&lt;br&gt;&lt;/div&gt;&lt;div&gt;ITipo&lt;/div&gt;&lt;div&gt;&lt;br&gt;&lt;/div&gt;&lt;div&gt;IJugador&lt;br&gt;&lt;div&gt;&lt;br&gt;&lt;div&gt;Ataque&lt;/div&gt;&lt;/div&gt;&lt;/div&gt;" style="text;html=1;align=center;verticalAlign=middle;whiteSpace=wrap;rounded=0;" vertex="1" parent="n0_7weILmG-cv_jluciN-6">
          <mxGeometry x="200" y="67.5" width="120" height="5" as="geometry" />
        </mxCell>
        <mxCell id="n0_7weILmG-cv_jluciN-14" value="Electrico" style="swimlane;whiteSpace=wrap;html=1;startSize=20;" vertex="1" parent="1">
          <mxGeometry x="740" y="480" width="300" height="120" as="geometry" />
        </mxCell>
        <mxCell id="n0_7weILmG-cv_jluciN-15" value="- Nombre del tipo de pokeémon&lt;div&gt;&lt;div&gt;&lt;div&gt;- Calcular la efectividad al atacar&lt;/div&gt;&lt;/div&gt;&lt;/div&gt;" style="text;html=1;align=left;verticalAlign=middle;whiteSpace=wrap;rounded=0;" vertex="1" parent="n0_7weILmG-cv_jluciN-14">
          <mxGeometry x="10" y="20" width="200" height="100" as="geometry" />
        </mxCell>
        <mxCell id="n0_7weILmG-cv_jluciN-16" value="" style="endArrow=none;html=1;rounded=0;" edge="1" parent="n0_7weILmG-cv_jluciN-14">
          <mxGeometry width="50" height="50" relative="1" as="geometry">
            <mxPoint x="210" y="120" as="sourcePoint" />
            <mxPoint x="210" y="20" as="targetPoint" />
            <Array as="points">
              <mxPoint x="210" y="20" />
            </Array>
          </mxGeometry>
        </mxCell>
        <mxCell id="n0_7weILmG-cv_jluciN-17" value="IPokemon&lt;div&gt;&lt;br&gt;&lt;/div&gt;&lt;div&gt;ITipo&lt;/div&gt;&lt;div&gt;&lt;br&gt;&lt;/div&gt;&lt;div&gt;IJugador&lt;br&gt;&lt;div&gt;&lt;br&gt;&lt;div&gt;Ataque&lt;/div&gt;&lt;/div&gt;&lt;/div&gt;" style="text;html=1;align=center;verticalAlign=middle;whiteSpace=wrap;rounded=0;" vertex="1" parent="n0_7weILmG-cv_jluciN-14">
          <mxGeometry x="200" y="67.5" width="120" height="5" as="geometry" />
        </mxCell>
        <mxCell id="n0_7weILmG-cv_jluciN-18" value="Agua" style="swimlane;whiteSpace=wrap;html=1;startSize=20;" vertex="1" parent="1">
          <mxGeometry x="400" y="480" width="300" height="120" as="geometry" />
        </mxCell>
        <mxCell id="n0_7weILmG-cv_jluciN-19" value="- Nombre del tipo de pokeémon&lt;div&gt;&lt;div&gt;&lt;div&gt;- Calcular la efectividad al atacar&lt;/div&gt;&lt;/div&gt;&lt;/div&gt;" style="text;html=1;align=left;verticalAlign=middle;whiteSpace=wrap;rounded=0;" vertex="1" parent="n0_7weILmG-cv_jluciN-18">
          <mxGeometry x="10" y="20" width="200" height="100" as="geometry" />
        </mxCell>
        <mxCell id="n0_7weILmG-cv_jluciN-20" value="" style="endArrow=none;html=1;rounded=0;" edge="1" parent="n0_7weILmG-cv_jluciN-18">
          <mxGeometry width="50" height="50" relative="1" as="geometry">
            <mxPoint x="210" y="120" as="sourcePoint" />
            <mxPoint x="210" y="20" as="targetPoint" />
            <Array as="points">
              <mxPoint x="210" y="20" />
            </Array>
          </mxGeometry>
        </mxCell>
        <mxCell id="n0_7weILmG-cv_jluciN-21" value="IPokemon&lt;div&gt;&lt;br&gt;&lt;/div&gt;&lt;div&gt;ITipo&lt;/div&gt;&lt;div&gt;&lt;br&gt;&lt;/div&gt;&lt;div&gt;IJugador&lt;br&gt;&lt;div&gt;&lt;br&gt;&lt;div&gt;Ataque&lt;/div&gt;&lt;/div&gt;&lt;/div&gt;" style="text;html=1;align=center;verticalAlign=middle;whiteSpace=wrap;rounded=0;" vertex="1" parent="n0_7weILmG-cv_jluciN-18">
          <mxGeometry x="200" y="67.5" width="120" height="5" as="geometry" />
        </mxCell>
        <mxCell id="n0_7weILmG-cv_jluciN-22" value="Fuego" style="swimlane;whiteSpace=wrap;html=1;startSize=20;" vertex="1" parent="1">
          <mxGeometry x="1070" y="480" width="300" height="120" as="geometry" />
        </mxCell>
        <mxCell id="n0_7weILmG-cv_jluciN-23" value="- Nombre del tipo de pokeémon&lt;div&gt;&lt;div&gt;&lt;div&gt;- Calcular la efectividad al atacar&lt;/div&gt;&lt;/div&gt;&lt;/div&gt;" style="text;html=1;align=left;verticalAlign=middle;whiteSpace=wrap;rounded=0;" vertex="1" parent="n0_7weILmG-cv_jluciN-22">
          <mxGeometry x="10" y="20" width="200" height="100" as="geometry" />
        </mxCell>
        <mxCell id="n0_7weILmG-cv_jluciN-24" value="" style="endArrow=none;html=1;rounded=0;" edge="1" parent="n0_7weILmG-cv_jluciN-22">
          <mxGeometry width="50" height="50" relative="1" as="geometry">
            <mxPoint x="210" y="120" as="sourcePoint" />
            <mxPoint x="210" y="20" as="targetPoint" />
            <Array as="points">
              <mxPoint x="210" y="20" />
            </Array>
          </mxGeometry>
        </mxCell>
        <mxCell id="n0_7weILmG-cv_jluciN-25" value="IPokemon&lt;div&gt;&lt;br&gt;&lt;/div&gt;&lt;div&gt;ITipo&lt;/div&gt;&lt;div&gt;&lt;br&gt;&lt;/div&gt;&lt;div&gt;IJugador&lt;br&gt;&lt;div&gt;&lt;br&gt;&lt;div&gt;Ataque&lt;/div&gt;&lt;/div&gt;&lt;/div&gt;" style="text;html=1;align=center;verticalAlign=middle;whiteSpace=wrap;rounded=0;" vertex="1" parent="n0_7weILmG-cv_jluciN-22">
          <mxGeometry x="200" y="67.5" width="120" height="5" as="geometry" />
        </mxCell>
        <mxCell id="n0_7weILmG-cv_jluciN-26" value="Hielo&lt;span style=&quot;color: rgba(0, 0, 0, 0); font-family: monospace; font-size: 0px; font-weight: 400; text-align: start; text-wrap: nowrap;&quot;&gt;%3CmxGraphModel%3E%3Croot%3E%3CmxCell%20id%3D%220%22%2F%3E%3CmxCell%20id%3D%221%22%20parent%3D%220%22%2F%3E%3CmxCell%20id%3D%222%22%20value%3D%22Agua%22%20style%3D%22swimlane%3BwhiteSpace%3Dwrap%3Bhtml%3D1%3BstartSize%3D20%3B%22%20vertex%3D%221%22%20parent%3D%221%22%3E%3CmxGeometry%20x%3D%2270%22%20y%3D%22630%22%20width%3D%22300%22%20height%3D%22120%22%20as%3D%22geometry%22%2F%3E%3C%2FmxCell%3E%3CmxCell%20id%3D%223%22%20value%3D%22-%20Nombre%20del%20tipo%20de%20poke%C3%A9mon%26lt%3Bdiv%26gt%3B%26lt%3Bdiv%26gt%3B%26lt%3Bdiv%26gt%3B-%20Calcular%20la%20efectividad%20al%20atacar%26lt%3B%2Fdiv%26gt%3B%26lt%3B%2Fdiv%26gt%3B%26lt%3B%2Fdiv%26gt%3B%22%20style%3D%22text%3Bhtml%3D1%3Balign%3Dleft%3BverticalAlign%3Dmiddle%3BwhiteSpace%3Dwrap%3Brounded%3D0%3B%22%20vertex%3D%221%22%20parent%3D%222%22%3E%3CmxGeometry%20x%3D%2210%22%20y%3D%2220%22%20width%3D%22200%22%20height%3D%22100%22%20as%3D%22geometry%22%2F%3E%3C%2FmxCell%3E%3CmxCell%20id%3D%224%22%20value%3D%22%22%20style%3D%22endArrow%3Dnone%3Bhtml%3D1%3Brounded%3D0%3B%22%20edge%3D%221%22%20parent%3D%222%22%3E%3CmxGeometry%20width%3D%2250%22%20height%3D%2250%22%20relative%3D%221%22%20as%3D%22geometry%22%3E%3CmxPoint%20x%3D%22210%22%20y%3D%22120%22%20as%3D%22sourcePoint%22%2F%3E%3CmxPoint%20x%3D%22210%22%20y%3D%2220%22%20as%3D%22targetPoint%22%2F%3E%3CArray%20as%3D%22points%22%3E%3CmxPoint%20x%3D%22210%22%20y%3D%2220%22%2F%3E%3C%2FArray%3E%3C%2FmxGeometry%3E%3C%2FmxCell%3E%3CmxCell%20id%3D%225%22%20value%3D%22IPokemon%26lt%3Bdiv%26gt%3B%26lt%3Bbr%26gt%3B%26lt%3B%2Fdiv%26gt%3B%26lt%3Bdiv%26gt%3BITipo%26lt%3B%2Fdiv%26gt%3B%26lt%3Bdiv%26gt%3B%26lt%3Bbr%26gt%3B%26lt%3B%2Fdiv%26gt%3B%26lt%3Bdiv%26gt%3BIJugador%26lt%3Bbr%26gt%3B%26lt%3Bdiv%26gt%3B%26lt%3Bbr%26gt%3B%26lt%3Bdiv%26gt%3BAtaque%26lt%3B%2Fdiv%26gt%3B%26lt%3B%2Fdiv%26gt%3B%26lt%3B%2Fdiv%26gt%3B%22%20style%3D%22text%3Bhtml%3D1%3Balign%3Dcenter%3BverticalAlign%3Dmiddle%3BwhiteSpace%3Dwrap%3Brounded%3D0%3B%22%20vertex%3D%221%22%20parent%3D%222%22%3E%3CmxGeometry%20x%3D%22200%22%20y%3D%2267.5%22%20width%3D%22120%22%20height%3D%225%22%20as%3D%22geometry%22%2F%3E%3C%2FmxCell%3E%3C%2Froot%3E%3C%2FmxGraphModel%3E&lt;/span&gt;" style="swimlane;whiteSpace=wrap;html=1;startSize=20;" vertex="1" parent="1">
          <mxGeometry x="70" y="620" width="300" height="120" as="geometry" />
        </mxCell>
        <mxCell id="n0_7weILmG-cv_jluciN-27" value="- Nombre del tipo de pokeémon&lt;div&gt;&lt;div&gt;&lt;div&gt;- Calcular la efectividad al atacar&lt;/div&gt;&lt;/div&gt;&lt;/div&gt;" style="text;html=1;align=left;verticalAlign=middle;whiteSpace=wrap;rounded=0;" vertex="1" parent="n0_7weILmG-cv_jluciN-26">
          <mxGeometry x="10" y="20" width="200" height="100" as="geometry" />
        </mxCell>
        <mxCell id="n0_7weILmG-cv_jluciN-28" value="" style="endArrow=none;html=1;rounded=0;" edge="1" parent="n0_7weILmG-cv_jluciN-26">
          <mxGeometry width="50" height="50" relative="1" as="geometry">
            <mxPoint x="210" y="120" as="sourcePoint" />
            <mxPoint x="210" y="20" as="targetPoint" />
            <Array as="points">
              <mxPoint x="210" y="20" />
            </Array>
          </mxGeometry>
        </mxCell>
        <mxCell id="n0_7weILmG-cv_jluciN-29" value="IPokemon&lt;div&gt;&lt;br&gt;&lt;/div&gt;&lt;div&gt;ITipo&lt;/div&gt;&lt;div&gt;&lt;br&gt;&lt;/div&gt;&lt;div&gt;IJugador&lt;br&gt;&lt;div&gt;&lt;br&gt;&lt;div&gt;Ataque&lt;/div&gt;&lt;/div&gt;&lt;/div&gt;" style="text;html=1;align=center;verticalAlign=middle;whiteSpace=wrap;rounded=0;" vertex="1" parent="n0_7weILmG-cv_jluciN-26">
          <mxGeometry x="200" y="67.5" width="120" height="5" as="geometry" />
        </mxCell>
        <mxCell id="n0_7weILmG-cv_jluciN-35" value="Tierra" style="swimlane;whiteSpace=wrap;html=1;startSize=20;" vertex="1" parent="1">
          <mxGeometry x="740" y="620" width="300" height="120" as="geometry" />
        </mxCell>
        <mxCell id="n0_7weILmG-cv_jluciN-36" value="- Nombre del tipo de pokeémon&lt;div&gt;&lt;div&gt;&lt;div&gt;- Calcular la efectividad al atacar&lt;/div&gt;&lt;/div&gt;&lt;/div&gt;" style="text;html=1;align=left;verticalAlign=middle;whiteSpace=wrap;rounded=0;" vertex="1" parent="n0_7weILmG-cv_jluciN-35">
          <mxGeometry x="10" y="20" width="200" height="100" as="geometry" />
        </mxCell>
        <mxCell id="n0_7weILmG-cv_jluciN-37" value="" style="endArrow=none;html=1;rounded=0;" edge="1" parent="n0_7weILmG-cv_jluciN-35">
          <mxGeometry width="50" height="50" relative="1" as="geometry">
            <mxPoint x="210" y="120" as="sourcePoint" />
            <mxPoint x="210" y="20" as="targetPoint" />
            <Array as="points">
              <mxPoint x="210" y="20" />
            </Array>
          </mxGeometry>
        </mxCell>
        <mxCell id="n0_7weILmG-cv_jluciN-38" value="IPokemon&lt;div&gt;&lt;br&gt;&lt;/div&gt;&lt;div&gt;ITipo&lt;/div&gt;&lt;div&gt;&lt;br&gt;&lt;/div&gt;&lt;div&gt;IJugador&lt;br&gt;&lt;div&gt;&lt;br&gt;&lt;div&gt;Ataque&lt;/div&gt;&lt;/div&gt;&lt;/div&gt;" style="text;html=1;align=center;verticalAlign=middle;whiteSpace=wrap;rounded=0;" vertex="1" parent="n0_7weILmG-cv_jluciN-35">
          <mxGeometry x="200" y="67.5" width="120" height="5" as="geometry" />
        </mxCell>
        <mxCell id="n0_7weILmG-cv_jluciN-39" value="Planta" style="swimlane;whiteSpace=wrap;html=1;startSize=20;" vertex="1" parent="1">
          <mxGeometry x="400" y="620" width="300" height="120" as="geometry" />
        </mxCell>
        <mxCell id="n0_7weILmG-cv_jluciN-40" value="- Nombre del tipo de pokeémon&lt;div&gt;&lt;div&gt;&lt;div&gt;- Calcular la efectividad al atacar&lt;/div&gt;&lt;/div&gt;&lt;/div&gt;" style="text;html=1;align=left;verticalAlign=middle;whiteSpace=wrap;rounded=0;" vertex="1" parent="n0_7weILmG-cv_jluciN-39">
          <mxGeometry x="10" y="20" width="200" height="100" as="geometry" />
        </mxCell>
        <mxCell id="n0_7weILmG-cv_jluciN-41" value="" style="endArrow=none;html=1;rounded=0;" edge="1" parent="n0_7weILmG-cv_jluciN-39">
          <mxGeometry width="50" height="50" relative="1" as="geometry">
            <mxPoint x="210" y="120" as="sourcePoint" />
            <mxPoint x="210" y="20" as="targetPoint" />
            <Array as="points">
              <mxPoint x="210" y="20" />
            </Array>
          </mxGeometry>
        </mxCell>
        <mxCell id="n0_7weILmG-cv_jluciN-42" value="IPokemon&lt;div&gt;&lt;br&gt;&lt;/div&gt;&lt;div&gt;ITipo&lt;/div&gt;&lt;div&gt;&lt;br&gt;&lt;/div&gt;&lt;div&gt;IJugador&lt;br&gt;&lt;div&gt;&lt;br&gt;&lt;div&gt;Ataque&lt;/div&gt;&lt;/div&gt;&lt;/div&gt;" style="text;html=1;align=center;verticalAlign=middle;whiteSpace=wrap;rounded=0;" vertex="1" parent="n0_7weILmG-cv_jluciN-39">
          <mxGeometry x="200" y="67.5" width="120" height="5" as="geometry" />
        </mxCell>
        <mxCell id="n0_7weILmG-cv_jluciN-44" value="JugadorPrincipal" style="swimlane;whiteSpace=wrap;html=1;startSize=20;" vertex="1" parent="1">
          <mxGeometry x="930" y="250" width="420" height="160" as="geometry" />
        </mxCell>
        <mxCell id="n0_7weILmG-cv_jluciN-45" value="&lt;div&gt;- Nombre del jugador&lt;/div&gt;&lt;div&gt;- Pokemones disponibles para elegir&lt;/div&gt;&lt;div&gt;&lt;span style=&quot;background-color: initial;&quot;&gt;- Indicar cuando es el turno del jugador&lt;/span&gt;&lt;/div&gt;&lt;div&gt;&lt;div&gt;&lt;span style=&quot;background-color: initial;&quot;&gt;- Elegir pokémon para atacar&lt;/span&gt;&lt;br&gt;&lt;/div&gt;&lt;div&gt;- Elegir ataque del pokémon&amp;nbsp;&lt;/div&gt;&lt;div&gt;- Mostrar el turno de cada jugador&lt;/div&gt;&lt;/div&gt;" style="text;html=1;align=left;verticalAlign=middle;whiteSpace=wrap;rounded=0;" vertex="1" parent="n0_7weILmG-cv_jluciN-44">
          <mxGeometry x="10" y="20" width="240" height="140" as="geometry" />
        </mxCell>
        <mxCell id="n0_7weILmG-cv_jluciN-46" value="" style="endArrow=none;html=1;rounded=0;exitX=1;exitY=1;exitDx=0;exitDy=0;" edge="1" parent="n0_7weILmG-cv_jluciN-44" source="n0_7weILmG-cv_jluciN-45">
          <mxGeometry width="50" height="50" relative="1" as="geometry">
            <mxPoint x="180" y="-140" as="sourcePoint" />
            <mxPoint x="250" y="20" as="targetPoint" />
          </mxGeometry>
        </mxCell>
        <mxCell id="n0_7weILmG-cv_jluciN-47" value="IPokemon&lt;div&gt;&lt;br&gt;&lt;/div&gt;&lt;div&gt;IJugador&lt;div&gt;&lt;div&gt;&lt;br&gt;&lt;/div&gt;&lt;/div&gt;&lt;/div&gt;" style="text;html=1;align=center;verticalAlign=middle;whiteSpace=wrap;rounded=0;" vertex="1" parent="n0_7weILmG-cv_jluciN-44">
          <mxGeometry x="300" y="75" width="60" height="30" as="geometry" />
        </mxCell>
      </root>
    </mxGraphModel>
  </diagram>
</mxfile>
